<mxfile host="app.diagrams.net" agent="Mozilla/5.0 (Windows NT 10.0; Win64; x64) AppleWebKit/537.36 (KHTML, like Gecko) Chrome/134.0.0.0 Safari/537.36 Edg/134.0.0.0" version="26.1.0">
  <diagram name="Page-1" id="z9dWjCeJqhollV5KvwhV">
    <mxGraphModel dx="2084" dy="1156" grid="1" gridSize="10" guides="1" tooltips="1" connect="1" arrows="1" fold="1" page="1" pageScale="1" pageWidth="850" pageHeight="1100" math="0" shadow="0">
      <root>
        <mxCell id="0" />
        <mxCell id="1" parent="0" />
        <mxCell id="BCeCsEh57ahOH7ExvNgt-1" value="WITHOUT WEBSOCKET" style="text;html=1;align=center;verticalAlign=middle;whiteSpace=wrap;rounded=0;" vertex="1" parent="1">
          <mxGeometry x="40" y="30" width="190" height="30" as="geometry" />
        </mxCell>
        <mxCell id="BCeCsEh57ahOH7ExvNgt-4" value="Database" style="rounded=0;whiteSpace=wrap;html=1;" vertex="1" parent="1">
          <mxGeometry x="270" y="130" width="120" height="60" as="geometry" />
        </mxCell>
        <mxCell id="BCeCsEh57ahOH7ExvNgt-5" value="Fetch Data" style="rounded=0;whiteSpace=wrap;html=1;" vertex="1" parent="1">
          <mxGeometry x="270" y="250" width="120" height="60" as="geometry" />
        </mxCell>
        <mxCell id="BCeCsEh57ahOH7ExvNgt-6" value="Select Top 10" style="rounded=0;whiteSpace=wrap;html=1;" vertex="1" parent="1">
          <mxGeometry x="270" y="370" width="120" height="60" as="geometry" />
        </mxCell>
        <mxCell id="BCeCsEh57ahOH7ExvNgt-7" value="Display" style="rounded=0;whiteSpace=wrap;html=1;" vertex="1" parent="1">
          <mxGeometry x="270" y="480" width="120" height="60" as="geometry" />
        </mxCell>
        <mxCell id="BCeCsEh57ahOH7ExvNgt-8" value="API Request Every * Second" style="rounded=0;whiteSpace=wrap;html=1;" vertex="1" parent="1">
          <mxGeometry x="270" y="600" width="120" height="60" as="geometry" />
        </mxCell>
        <mxCell id="BCeCsEh57ahOH7ExvNgt-9" value="" style="endArrow=classic;html=1;rounded=0;exitX=0.5;exitY=1;exitDx=0;exitDy=0;entryX=0.5;entryY=0;entryDx=0;entryDy=0;" edge="1" parent="1" source="BCeCsEh57ahOH7ExvNgt-4" target="BCeCsEh57ahOH7ExvNgt-5">
          <mxGeometry width="50" height="50" relative="1" as="geometry">
            <mxPoint x="590" y="440" as="sourcePoint" />
            <mxPoint x="640" y="390" as="targetPoint" />
          </mxGeometry>
        </mxCell>
        <mxCell id="BCeCsEh57ahOH7ExvNgt-10" value="" style="endArrow=classic;html=1;rounded=0;exitX=0.5;exitY=1;exitDx=0;exitDy=0;entryX=0.5;entryY=0;entryDx=0;entryDy=0;" edge="1" parent="1" source="BCeCsEh57ahOH7ExvNgt-5" target="BCeCsEh57ahOH7ExvNgt-6">
          <mxGeometry width="50" height="50" relative="1" as="geometry">
            <mxPoint x="340" y="200" as="sourcePoint" />
            <mxPoint x="340" y="260" as="targetPoint" />
          </mxGeometry>
        </mxCell>
        <mxCell id="BCeCsEh57ahOH7ExvNgt-11" value="" style="endArrow=classic;html=1;rounded=0;exitX=0.5;exitY=1;exitDx=0;exitDy=0;entryX=0.5;entryY=0;entryDx=0;entryDy=0;" edge="1" parent="1" source="BCeCsEh57ahOH7ExvNgt-6" target="BCeCsEh57ahOH7ExvNgt-7">
          <mxGeometry width="50" height="50" relative="1" as="geometry">
            <mxPoint x="340" y="320" as="sourcePoint" />
            <mxPoint x="340" y="380" as="targetPoint" />
          </mxGeometry>
        </mxCell>
        <mxCell id="BCeCsEh57ahOH7ExvNgt-12" value="" style="endArrow=classic;html=1;rounded=0;exitX=0.5;exitY=1;exitDx=0;exitDy=0;entryX=0.5;entryY=0;entryDx=0;entryDy=0;" edge="1" parent="1" source="BCeCsEh57ahOH7ExvNgt-7" target="BCeCsEh57ahOH7ExvNgt-8">
          <mxGeometry width="50" height="50" relative="1" as="geometry">
            <mxPoint x="340" y="440" as="sourcePoint" />
            <mxPoint x="340" y="490" as="targetPoint" />
          </mxGeometry>
        </mxCell>
        <mxCell id="BCeCsEh57ahOH7ExvNgt-14" value="" style="endArrow=classic;html=1;rounded=0;exitX=1;exitY=0.5;exitDx=0;exitDy=0;entryX=1;entryY=0.5;entryDx=0;entryDy=0;" edge="1" parent="1" source="BCeCsEh57ahOH7ExvNgt-8" target="BCeCsEh57ahOH7ExvNgt-5">
          <mxGeometry width="50" height="50" relative="1" as="geometry">
            <mxPoint x="590" y="440" as="sourcePoint" />
            <mxPoint x="450" y="170" as="targetPoint" />
            <Array as="points">
              <mxPoint x="560" y="630" />
              <mxPoint x="560" y="280" />
            </Array>
          </mxGeometry>
        </mxCell>
        <mxCell id="BCeCsEh57ahOH7ExvNgt-15" value="WITH WEBSOCKET" style="text;html=1;align=center;verticalAlign=middle;whiteSpace=wrap;rounded=0;" vertex="1" parent="1">
          <mxGeometry x="900" y="50" width="190" height="30" as="geometry" />
        </mxCell>
        <mxCell id="BCeCsEh57ahOH7ExvNgt-16" value="Database" style="rounded=0;whiteSpace=wrap;html=1;" vertex="1" parent="1">
          <mxGeometry x="1380" y="500" width="120" height="60" as="geometry" />
        </mxCell>
        <mxCell id="BCeCsEh57ahOH7ExvNgt-18" value="Notify Client via WebSocket" style="rounded=0;whiteSpace=wrap;html=1;" vertex="1" parent="1">
          <mxGeometry x="1380" y="630" width="120" height="60" as="geometry" />
        </mxCell>
        <mxCell id="BCeCsEh57ahOH7ExvNgt-19" value="Select Top 10" style="rounded=0;whiteSpace=wrap;html=1;" vertex="1" parent="1">
          <mxGeometry x="1380" y="740" width="120" height="60" as="geometry" />
        </mxCell>
        <mxCell id="BCeCsEh57ahOH7ExvNgt-21" value="" style="endArrow=classic;html=1;rounded=0;exitX=0.5;exitY=1;exitDx=0;exitDy=0;entryX=0.5;entryY=0;entryDx=0;entryDy=0;" edge="1" parent="1" source="BCeCsEh57ahOH7ExvNgt-16" target="BCeCsEh57ahOH7ExvNgt-18">
          <mxGeometry width="50" height="50" relative="1" as="geometry">
            <mxPoint x="1700" y="810" as="sourcePoint" />
            <mxPoint x="1440" y="620" as="targetPoint" />
          </mxGeometry>
        </mxCell>
        <mxCell id="BCeCsEh57ahOH7ExvNgt-23" value="" style="endArrow=classic;html=1;rounded=0;exitX=0.5;exitY=1;exitDx=0;exitDy=0;entryX=0.5;entryY=0;entryDx=0;entryDy=0;" edge="1" parent="1" source="BCeCsEh57ahOH7ExvNgt-18" target="BCeCsEh57ahOH7ExvNgt-19">
          <mxGeometry width="50" height="50" relative="1" as="geometry">
            <mxPoint x="1450" y="580" as="sourcePoint" />
            <mxPoint x="1450" y="640" as="targetPoint" />
          </mxGeometry>
        </mxCell>
        <mxCell id="BCeCsEh57ahOH7ExvNgt-26" value="User" style="rounded=0;whiteSpace=wrap;html=1;" vertex="1" parent="1">
          <mxGeometry x="1030" y="130" width="120" height="60" as="geometry" />
        </mxCell>
        <mxCell id="BCeCsEh57ahOH7ExvNgt-27" value="API Request" style="rounded=0;whiteSpace=wrap;html=1;" vertex="1" parent="1">
          <mxGeometry x="1030" y="250" width="120" height="60" as="geometry" />
        </mxCell>
        <mxCell id="BCeCsEh57ahOH7ExvNgt-28" value="Validation" style="rounded=0;whiteSpace=wrap;html=1;" vertex="1" parent="1">
          <mxGeometry x="1030" y="380" width="120" height="60" as="geometry" />
        </mxCell>
        <mxCell id="BCeCsEh57ahOH7ExvNgt-29" value="Valid?" style="rhombus;whiteSpace=wrap;html=1;" vertex="1" parent="1">
          <mxGeometry x="1050" y="490" width="80" height="80" as="geometry" />
        </mxCell>
        <mxCell id="BCeCsEh57ahOH7ExvNgt-30" value="" style="endArrow=classic;html=1;rounded=0;exitX=0.5;exitY=1;exitDx=0;exitDy=0;entryX=0.5;entryY=0;entryDx=0;entryDy=0;" edge="1" parent="1" source="BCeCsEh57ahOH7ExvNgt-26" target="BCeCsEh57ahOH7ExvNgt-27">
          <mxGeometry width="50" height="50" relative="1" as="geometry">
            <mxPoint x="1650" y="210" as="sourcePoint" />
            <mxPoint x="1650" y="270" as="targetPoint" />
          </mxGeometry>
        </mxCell>
        <mxCell id="BCeCsEh57ahOH7ExvNgt-31" value="" style="endArrow=classic;html=1;rounded=0;exitX=0.5;exitY=1;exitDx=0;exitDy=0;entryX=0.5;entryY=0;entryDx=0;entryDy=0;" edge="1" parent="1" source="BCeCsEh57ahOH7ExvNgt-27" target="BCeCsEh57ahOH7ExvNgt-28">
          <mxGeometry width="50" height="50" relative="1" as="geometry">
            <mxPoint x="1100" y="200" as="sourcePoint" />
            <mxPoint x="1100" y="260" as="targetPoint" />
          </mxGeometry>
        </mxCell>
        <mxCell id="BCeCsEh57ahOH7ExvNgt-32" value="" style="endArrow=classic;html=1;rounded=0;exitX=0.5;exitY=1;exitDx=0;exitDy=0;entryX=0.5;entryY=0;entryDx=0;entryDy=0;" edge="1" parent="1" source="BCeCsEh57ahOH7ExvNgt-28" target="BCeCsEh57ahOH7ExvNgt-29">
          <mxGeometry width="50" height="50" relative="1" as="geometry">
            <mxPoint x="1100" y="320" as="sourcePoint" />
            <mxPoint x="1100" y="390" as="targetPoint" />
          </mxGeometry>
        </mxCell>
        <mxCell id="BCeCsEh57ahOH7ExvNgt-33" value="" style="endArrow=classic;html=1;rounded=0;exitX=0.5;exitY=1;exitDx=0;exitDy=0;entryX=0.5;entryY=0;entryDx=0;entryDy=0;" edge="1" parent="1" source="BCeCsEh57ahOH7ExvNgt-29" target="BCeCsEh57ahOH7ExvNgt-34">
          <mxGeometry width="50" height="50" relative="1" as="geometry">
            <mxPoint x="1100" y="450" as="sourcePoint" />
            <mxPoint x="1090" y="630" as="targetPoint" />
          </mxGeometry>
        </mxCell>
        <mxCell id="BCeCsEh57ahOH7ExvNgt-35" value="No" style="edgeLabel;html=1;align=center;verticalAlign=middle;resizable=0;points=[];" vertex="1" connectable="0" parent="BCeCsEh57ahOH7ExvNgt-33">
          <mxGeometry x="-0.0302" y="1" relative="1" as="geometry">
            <mxPoint as="offset" />
          </mxGeometry>
        </mxCell>
        <mxCell id="BCeCsEh57ahOH7ExvNgt-34" value="Reject" style="rounded=0;whiteSpace=wrap;html=1;" vertex="1" parent="1">
          <mxGeometry x="1030" y="630" width="120" height="60" as="geometry" />
        </mxCell>
        <mxCell id="BCeCsEh57ahOH7ExvNgt-36" value="" style="endArrow=classic;html=1;rounded=0;exitX=1;exitY=0.5;exitDx=0;exitDy=0;entryX=0;entryY=0.5;entryDx=0;entryDy=0;" edge="1" parent="1" source="BCeCsEh57ahOH7ExvNgt-29" target="BCeCsEh57ahOH7ExvNgt-39">
          <mxGeometry width="50" height="50" relative="1" as="geometry">
            <mxPoint x="1150" y="540" as="sourcePoint" />
            <mxPoint x="1200" y="530" as="targetPoint" />
          </mxGeometry>
        </mxCell>
        <mxCell id="BCeCsEh57ahOH7ExvNgt-37" value="No" style="edgeLabel;html=1;align=center;verticalAlign=middle;resizable=0;points=[];" vertex="1" connectable="0" parent="BCeCsEh57ahOH7ExvNgt-36">
          <mxGeometry x="-0.0302" y="1" relative="1" as="geometry">
            <mxPoint as="offset" />
          </mxGeometry>
        </mxCell>
        <mxCell id="BCeCsEh57ahOH7ExvNgt-38" value="Yes" style="edgeLabel;html=1;align=center;verticalAlign=middle;resizable=0;points=[];" vertex="1" connectable="0" parent="BCeCsEh57ahOH7ExvNgt-36">
          <mxGeometry x="-0.0313" y="-1" relative="1" as="geometry">
            <mxPoint as="offset" />
          </mxGeometry>
        </mxCell>
        <mxCell id="BCeCsEh57ahOH7ExvNgt-39" value="Update" style="rounded=0;whiteSpace=wrap;html=1;" vertex="1" parent="1">
          <mxGeometry x="1200" y="500" width="120" height="60" as="geometry" />
        </mxCell>
        <mxCell id="BCeCsEh57ahOH7ExvNgt-40" value="" style="endArrow=classic;html=1;rounded=0;exitX=1;exitY=0.5;exitDx=0;exitDy=0;entryX=0;entryY=0.5;entryDx=0;entryDy=0;" edge="1" parent="1" source="BCeCsEh57ahOH7ExvNgt-39" target="BCeCsEh57ahOH7ExvNgt-16">
          <mxGeometry width="50" height="50" relative="1" as="geometry">
            <mxPoint x="1100" y="200" as="sourcePoint" />
            <mxPoint x="1100" y="260" as="targetPoint" />
          </mxGeometry>
        </mxCell>
        <mxCell id="BCeCsEh57ahOH7ExvNgt-42" value="Frontend Update (Display)" style="rounded=0;whiteSpace=wrap;html=1;" vertex="1" parent="1">
          <mxGeometry x="1380" y="860" width="120" height="60" as="geometry" />
        </mxCell>
        <mxCell id="BCeCsEh57ahOH7ExvNgt-43" value="" style="endArrow=classic;html=1;rounded=0;exitX=0.5;exitY=1;exitDx=0;exitDy=0;entryX=0.5;entryY=0;entryDx=0;entryDy=0;" edge="1" parent="1" source="BCeCsEh57ahOH7ExvNgt-19" target="BCeCsEh57ahOH7ExvNgt-42">
          <mxGeometry width="50" height="50" relative="1" as="geometry">
            <mxPoint x="1450" y="570" as="sourcePoint" />
            <mxPoint x="1450" y="640" as="targetPoint" />
          </mxGeometry>
        </mxCell>
      </root>
    </mxGraphModel>
  </diagram>
</mxfile>
